<svg xmlns="http://www.w3.org/2000/svg" width="165" height="49" viewBox="0 0 165 49">
    <g fill="none" fill-rule="evenodd">
        <g stroke-linejoin="square">
            <rect width="163.864" height="47.864" x=".568" y=".568" fill="#000" stroke="#A6A6A6" stroke-width="1.136" rx="4.544"/>
            <rect width="164.432" height="48.432" x=".284" y=".284" stroke="#8F8F8F" stroke-width=".568" rx="4.544"/>
        </g>
        <path fill="#FFF" d="M63.333 37.631h2.773l-6.07-16.822h-2.809l-6.07 16.822h2.68l1.55-4.465h6.408l1.538 4.465zm-4.836-13.768h.199l2.435 7.112h-5.08l2.446-7.112zm14.963.863c-1.725 0-3.216.863-3.986 2.308h-.186v-2.098h-2.412v16.81h2.505v-6.038h.198c.665 1.34 2.098 2.133 3.904 2.133 3.204 0 5.243-2.53 5.243-6.563 0-4.034-2.039-6.552-5.266-6.552zm-.711 10.865c-2.098 0-3.414-1.655-3.414-4.302 0-2.658 1.316-4.313 3.425-4.313 2.121 0 3.391 1.62 3.391 4.302 0 2.693-1.27 4.313-3.402 4.313zm13.703-10.865c-1.724 0-3.216.863-3.985 2.308h-.186v-2.098h-2.412v16.81h2.505v-6.038h.198c.664 1.34 2.098 2.133 3.904 2.133 3.204 0 5.243-2.53 5.243-6.563 0-4.034-2.039-6.552-5.267-6.552zm-.71 10.865c-2.098 0-3.414-1.655-3.414-4.302 0-2.658 1.316-4.313 3.425-4.313 2.121 0 3.391 1.62 3.391 4.302 0 2.693-1.27 4.313-3.402 4.313zm11.28-2.483c.187 3.008 2.692 4.931 6.42 4.931 3.986 0 6.48-2.017 6.48-5.234 0-2.53-1.422-3.929-4.871-4.733l-1.853-.455c-2.19-.513-3.076-1.2-3.076-2.401 0-1.516 1.375-2.507 3.437-2.507 1.958 0 3.31.968 3.554 2.518h2.54c-.151-2.832-2.645-4.826-6.059-4.826-3.67 0-6.117 1.994-6.117 4.99 0 2.471 1.386 3.94 4.428 4.651l2.167.525c2.225.524 3.204 1.294 3.204 2.576 0 1.492-1.538 2.576-3.635 2.576-2.25 0-3.81-1.014-4.032-2.611h-2.587zm15.056-11.25v3.136h-2.086v2.11h2.086v7.17c0 2.448 1.107 3.427 3.891 3.427.49 0 .944-.058 1.34-.128v-2.087c-.35.035-.547.058-.932.058-1.246 0-1.794-.582-1.794-1.911v-6.529h2.843v-2.11h-2.843v-3.136h-2.505zm11.56 13.791c-2.18 0-3.403-1.597-3.403-4.371 0-2.751 1.223-4.36 3.402-4.36 2.168 0 3.403 1.609 3.403 4.36 0 2.763-1.235 4.371-3.403 4.371zm0 2.227c3.705 0 5.977-2.483 5.977-6.598 0-4.092-2.284-6.587-5.978-6.587-3.705 0-5.989 2.495-5.989 6.587 0 4.115 2.272 6.598 5.99 6.598zm7.12-.245h2.505v-7.496c0-1.783 1.34-2.984 3.227-2.984.42 0 1.189.082 1.387.151v-2.47c-.268-.07-.746-.106-1.107-.106-1.655 0-3.053.91-3.414 2.157h-.187v-1.947h-2.412v12.695zm12.76-10.806c1.852 0 3.064 1.294 3.122 3.287h-6.409c.14-1.982 1.434-3.287 3.286-3.287zm3.11 7.379c-.466.99-1.503 1.539-3.017 1.539-2.005 0-3.298-1.411-3.38-3.638v-.14h8.96v-.874c0-3.987-2.131-6.4-5.662-6.4-3.577 0-5.85 2.577-5.85 6.633 0 4.057 2.226 6.552 5.862 6.552 2.901 0 4.928-1.399 5.5-3.672h-2.413zM53.504 7.679v8.01h2.891c2.386 0 3.768-1.471 3.768-4.03 0-2.52-1.393-3.98-3.768-3.98h-2.89zm1.243 1.132h1.51c1.658 0 2.64 1.055 2.64 2.865 0 1.837-.965 2.88-2.64 2.88h-1.51V8.812zm9.79 5.934c-1.038 0-1.621-.76-1.621-2.081 0-1.31.583-2.076 1.62-2.076 1.032 0 1.62.766 1.62 2.076 0 1.315-.588 2.081-1.62 2.081zm0 1.06c1.764 0 2.846-1.182 2.846-3.141 0-1.949-1.088-3.137-2.847-3.137-1.764 0-2.852 1.188-2.852 3.137 0 1.96 1.082 3.142 2.852 3.142zm12.196-6.161H75.54l-1.076 4.613h-.095l-1.242-4.613h-1.143l-1.243 4.613h-.09L69.57 9.644h-1.21l1.665 6.045h1.226l1.243-4.452h.094l1.249 4.452h1.237l1.66-6.045zm1.516 6.045h1.193v-3.536c0-.944.588-1.532 1.548-1.532.888 0 1.32.483 1.32 1.454v3.614h1.194v-3.914c0-1.437-.76-2.248-2.109-2.248-.91 0-1.615.405-1.909 1.077h-.088v-.96h-1.149v6.045zm7.27 0h1.193V7.285h-1.193v8.404zm5.816-.944c-1.038 0-1.62-.76-1.62-2.081 0-1.31.582-2.076 1.62-2.076 1.032 0 1.62.766 1.62 2.076 0 1.315-.588 2.081-1.62 2.081zm0 1.06c1.764 0 2.846-1.182 2.846-3.141 0-1.949-1.087-3.137-2.846-3.137-1.764 0-2.852 1.188-2.852 3.137 0 1.96 1.082 3.142 2.852 3.142zm6.537-1.02c-.649 0-1.12-.317-1.12-.861 0-.533.377-.816 1.21-.872l1.475-.094v.505c0 .75-.666 1.321-1.565 1.321zm-.305 1.004c.794 0 1.454-.344 1.815-.95h.094v.85h1.149v-4.13c0-1.277-.855-2.032-2.37-2.032-1.37 0-2.347.666-2.469 1.704h1.154c.133-.427.594-.671 1.26-.671.815 0 1.237.36 1.237.999v.522l-1.637.094c-1.437.089-2.247.716-2.247 1.804 0 1.105.849 1.81 2.014 1.81zm7.248 0c.832 0 1.537-.394 1.898-1.055h.094v.955h1.143V7.285h-1.193v3.32h-.089c-.327-.667-1.026-1.061-1.853-1.061-1.526 0-2.508 1.21-2.508 3.12 0 1.915.97 3.125 2.508 3.125zm.338-5.174c1 0 1.626.794 1.626 2.054 0 1.266-.621 2.049-1.626 2.049-1.01 0-1.614-.772-1.614-2.054 0-1.272.61-2.049 1.614-2.049zm10.811 4.13c-1.037 0-1.62-.76-1.62-2.081 0-1.31.583-2.076 1.62-2.076 1.032 0 1.62.766 1.62 2.076 0 1.315-.588 2.081-1.62 2.081zm0 1.06c1.765 0 2.847-1.182 2.847-3.141 0-1.949-1.088-3.137-2.847-3.137-1.764 0-2.852 1.188-2.852 3.137 0 1.96 1.082 3.142 2.852 3.142zm4.562-.116h1.193v-3.536c0-.944.589-1.532 1.548-1.532.888 0 1.321.483 1.321 1.454v3.614h1.193v-3.914c0-1.437-.76-2.248-2.108-2.248-.91 0-1.615.405-1.91 1.077h-.088v-.96h-1.149v6.045zm11.028-7.51v1.493h-.993v1.004h.993v3.414c0 1.166.527 1.632 1.853 1.632.233 0 .45-.027.638-.06v-.994c-.166.016-.26.027-.444.027-.593 0-.854-.277-.854-.91v-3.109h1.354V9.672h-1.354V8.178h-1.193zm4.246 7.51h1.193v-3.53c0-.916.604-1.533 1.581-1.533.899 0 1.348.489 1.348 1.455v3.608h1.193v-3.902c0-1.438-.777-2.254-2.136-2.254-.91 0-1.61.405-1.903 1.082h-.094v-3.33H135.8v8.404zm9.76-5.146c.883 0 1.46.616 1.488 1.566h-3.052c.067-.944.683-1.566 1.565-1.566zm1.482 3.514c-.222.472-.715.733-1.437.733-.954 0-1.57-.672-1.609-1.732v-.067h4.267v-.416c0-1.899-1.015-3.048-2.697-3.048-1.703 0-2.785 1.227-2.785 3.159 0 1.932 1.06 3.12 2.791 3.12 1.382 0 2.347-.666 2.619-1.749h-1.149z"/>
        <g fill="#FFF">
            <path d="M36.743 24.734c-.036-4.067 3.328-6.045 3.482-6.137-1.905-2.78-4.859-3.159-5.897-3.19-2.48-.26-4.886 1.486-6.15 1.486-1.288 0-3.234-1.46-5.331-1.417-2.699.042-5.223 1.605-6.608 4.032-2.857 4.95-.726 12.222 2.012 16.223 1.369 1.96 2.97 4.147 5.064 4.07 2.049-.083 2.814-1.307 5.287-1.307 2.45 0 3.17 1.307 5.305 1.256 2.2-.032 3.584-1.966 4.906-3.945 1.582-2.243 2.218-4.457 2.243-4.57-.05-.017-4.27-1.628-4.313-6.501M32.708 12.776c1.102-1.379 1.856-3.255 1.647-5.159-1.595.071-3.59 1.104-4.739 2.453-1.016 1.188-1.924 3.136-1.69 4.968 1.792.134 3.632-.904 4.782-2.262"/>
        </g>
    </g>
</svg>
