<svg xmlns="http://www.w3.org/2000/svg" xmlns:xlink="http://www.w3.org/1999/xlink" width="1280" height="516" viewBox="0 0 1280 516">
    <defs>
        <path id="a" d="M1798 401.406c-213.181 35.426-226.15-108.993-442.513-108.993-216.366 0-216.366 109.8-432.732 109.8-216.368 0-216.368-109.8-432.735-109.8-216.367 0-229.334 144.417-442.52 108.993C10.536 395.265 0 239.458 0 203.505 0 167.55 10.534 11.737 47.498 5.594c213.182-35.425 226.15 108.992 442.513 108.992 216.366 0 216.366-109.8 432.733-109.8s216.367 109.8 432.734 109.8c216.368 0 229.334-144.415 442.521-108.992"/>
        <linearGradient id="b" x1="0%" y1="50%" y2="50%">
            <stop offset="0%" stop-color="#00C8FF"/>
            <stop offset="100%" stop-color="#91FD9C"/>
        </linearGradient>
        <path id="d" d="M1773 400.42c-210.217 35.339-223.005-108.725-436.36-108.725-213.358 0-213.358 109.53-426.716 109.53-213.359 0-213.359-109.53-426.718-109.53-213.358 0-226.145 144.062-436.367 108.725C10.39 394.294 0 238.87 0 203.005 0 167.139 10.387 11.708 46.838 5.58c210.217-35.338 223.006 108.725 436.36 108.725 213.357 0 213.357-109.53 426.715-109.53 213.36 0 213.36 109.53 426.718 109.53 213.36 0 226.146-144.061 436.368-108.725"/>
        <path id="f" d="M1657.76 400.42c-196.553 35.339-208.51-108.725-407.997-108.725-199.49 0-199.49 109.53-398.98 109.53-199.492 0-199.492-109.53-398.983-109.53-199.49 0-211.447 144.062-408.006 108.725C9.714 394.294 0 238.87 0 203.005 0 167.139 9.712 11.708 43.793 5.58c196.554-35.338 208.512 108.725 407.998 108.725 199.49 0 199.49-109.53 398.981-109.53 199.491 0 199.491 109.53 398.983 109.53 199.491 0 211.446-144.061 408.005-108.725"/>
    </defs>
    <g fill="none" fill-rule="evenodd">
        <g opacity=".5" transform="translate(-285 -4)">
            <mask id="c" fill="#fff">
                <use xlink:href="#a"/>
            </mask>
            <path fill="url(#b)" d="M1797.642 401.406c-213.14 35.426-226.104-108.993-442.425-108.993-216.323 0-216.323 109.8-432.646 109.8-216.324 0-216.324-109.8-432.649-109.8-216.323 0-229.288 144.417-442.432 108.993C10.535 395.265 0 239.458 0 203.505 0 167.55 10.531 11.737 47.489 5.594c213.139-35.425 226.105 108.992 442.424 108.992 216.323 0 216.323-109.8 432.647-109.8 216.324 0 216.324 109.8 432.648 109.8 216.325 0 229.289-144.415 442.433-108.992 36.955 6.142 36.958 389.67 0 395.812" mask="url(#c)"/>
        </g>
        <g opacity=".5" transform="translate(-460 76)">
            <mask id="e" fill="#fff">
                <use xlink:href="#d"/>
            </mask>
            <path fill="url(#b)" d="M1773.024 400.42c-210.22 35.339-223.008-108.725-436.366-108.725-213.36 0-213.36 109.53-426.721 109.53-213.362 0-213.362-109.53-426.724-109.53-213.36 0-226.148 144.062-436.374 108.725C10.39 394.294 0 238.87 0 203.005 0 167.139 10.387 11.708 46.838 5.58c210.22-35.338 223.01 108.725 436.366 108.725 213.36 0 213.36-109.53 426.722-109.53 213.362 0 213.362 109.53 426.723 109.53 213.362 0 226.149-144.061 436.374-108.725 36.45 6.127 36.452 388.713.001 394.84" mask="url(#e)"/>
        </g>
        <g opacity=".2" transform="rotate(178 669.514 256.733)">
            <mask id="g" fill="#fff">
                <use xlink:href="#f"/>
            </mask>
            <path fill="url(#b)" d="M1657.76 400.42c-196.553 35.339-208.51-108.725-407.997-108.725-199.49 0-199.49 109.53-398.98 109.53-199.492 0-199.492-109.53-398.983-109.53-199.49 0-211.447 144.062-408.006 108.725C9.714 394.294 0 238.87 0 203.005 0 167.139 9.712 11.708 43.793 5.58c196.554-35.338 208.512 108.725 407.998 108.725 199.49 0 199.49-109.53 398.981-109.53 199.491 0 199.491 109.53 398.983 109.53 199.491 0 211.446-144.061 408.005-108.725 34.08 6.127 34.082 388.713 0 394.84" mask="url(#g)"/>
        </g>
    </g>
</svg>
