<svg xmlns="http://www.w3.org/2000/svg" xmlns:xlink="http://www.w3.org/1999/xlink" width="84" height="84" viewBox="0 0 84 84">
    <defs>
        <circle id="a" cx="42" cy="42" r="42"/>
        <path id="c" d="M11.495 10.218L8.805 0H0v10.324c0 2.511 2.09 4.708 4.54 4.708 2.423 0 6.955-2.303 6.955-4.814z"/>
    </defs>
    <g fill="none" fill-rule="evenodd">
        <mask id="b" fill="#fff">
            <use xlink:href="#a"/>
        </mask>
        <use fill="#C4F2FF" xlink:href="#a"/>
        <g mask="url(#b)">
            <g transform="translate(7.074 6.19)">
                <path fill="#FFF" stroke="#EFEFEF" stroke-width=".697" d="M48.332 110.046c.489-9.177.187-16-.904-20.469l-6.317-25.88c-.778-3.448.375-6.564 3.76-7.41 3.385-.847 6.76 1.263 7.537 4.712l6.502 24.338c1.264 4.73 1.874 12.142 1.831 22.234l-12.409 2.475z"/>
                <path fill="#00B4FF" d="M48.89 56.59H30.981l-2.686 64.046c7.561 1.002 15.222.5 22.983-1.504 2.995-10.46 2.2-31.307-2.388-62.543z"/>
                <path fill="#FFF" stroke="#EFEFEF" stroke-width=".697" d="M41.558 120.354c-3.396-11.213-4.832-40.913-5.547-47.884-.716-6.97.607-19.388-2.766-18.487C29.87 54.884 21.99 57.155 21 60.95c-1.924 7.372.949 5.189.948 11.432l.124 47.972c10.727 2.223 17.222 2.223 19.486 0zM53.937 120.08l-1.873-39.156c0-7.119-.593-10.196-1.482-19.156-.509-5.123-5.551-7.831-9.51-7.831-1.951 0 3.801 6.168 5.646 18.336 1.845 12.168 2.133 32.404.116 47.807 2.499 1.41 4.866 1.41 7.103 0z"/>
                <path fill="#FFF" stroke="#EFEFEF" stroke-width=".697" d="M36.589 110.434c-2.694-8.786-4.052-15.48-4.075-20.08l-.13-26.639c-.08-3.535-1.953-6.28-5.442-6.282-3.49-.002-6.253 2.861-6.173 6.396l-.421 25.189c-.082 4.895 1.118 12.234 3.602 22.016l12.639-.6z"/>
                <g transform="translate(29.179 53.053)">
                    <path stroke="#524B9A" stroke-width="1.117" d="M11.759 23.95c.853-5.358-1.701-12.27-6.635-11.4-4.935.87-3.551 9.968-1.122 12.608"/>
                    <path stroke="#524B9A" stroke-linecap="round" stroke-width="1.117" d="M20.069 19.453c.357-3.095.357-5.79 0-8.087-.774-4.972-3.666-9.536-5.922-10.482"/>
                    <circle cx="19.895" cy="21.663" r="2.211" fill="#454758"/>
                    <circle cx="19.895" cy="21.663" r="1.326" fill="#FFF"/>
                    <circle cx="11.937" cy="24.316" r="1.326" fill="#454758"/>
                    <path stroke="#524B9A" stroke-linecap="round" stroke-width="1.117" d="M5.305 12.379C1.99 6.288 1.782 2.16 4.684 0"/>
                </g>
                <g transform="matrix(-1 0 0 1 44.21 44.21)">
                    <mask id="d" fill="#fff">
                        <use xlink:href="#c"/>
                    </mask>
                    <use fill="#FADDCF" xlink:href="#c"/>
                    <path fill="#F3D2C3" fill-rule="nonzero" d="M10.556 12.377c.25.067 2.496-1.911 2.707-1.894l-.651-2.21c-.651-1.263-1.405-1.579-2.055-3.126l-.001-.039V3.537l-7.607.039-2.065.673c1.377 1.513 4.94 6.867 9.672 8.128z" mask="url(#d)"/>
                </g>
                <path fill="#FAE1D6" fill-rule="nonzero" d="M22.105 30.118c0 9.782 5.145 19.398 17.684 19.398 12.54 0 17.685-12.876 17.685-22.658 0-9.782-8.286-13.595-18.585-13.595-10.3 0-16.784 7.073-16.784 16.855z"/>
                <path stroke="#E5B6A1" stroke-linecap="round" stroke-width=".697" d="M38.021 40.674c0 1.768 2.177 3.537 4.863 3.537 2.686 0 4.863-1.769 4.863-3.537"/>
                <ellipse cx="35.811" cy="29.179" fill="#444" rx="1.326" ry="1.768" transform="matrix(-1 0 0 1 71.621 0)"/>
                <ellipse cx="49.074" cy="29.179" fill="#444" rx="1.326" ry="1.768" transform="matrix(-1 0 0 1 98.147 0)"/>
                <path fill="#5A4146" d="M27.23 20.536c-2.621 1.187-2.154 5.284-3.423 7.701-1.324 2.522-2.3 4.076-1.692 7.031l5.116 10.71c-2.58 0-10.83-7.153-13.206-17.74-.69-3.073-2.23-12.773 2.93-17.394 4.953-4.436 2.806-7.273 15.85-8.882 2.366-.291 4.173-.223 6.984 0l-1.357 13.503-11.201 5.071z"/>
                <path fill="#FAE1D6" fill-rule="nonzero" d="M23.549 28.408c-1.94-.466-3.212.53-3.212 2.487 0 2.59 2.61 8.935 5.353 4.972 2.743-3.962-2.141-7.459-2.141-7.459z"/>
                <path fill="#694B4B" fill-rule="nonzero" d="M57.449 2.798l-5.644 2.799c6.898 4.975 7.08 6.704 7.838 11.193.758 4.49 0 8.706 3.136 11.505-.314-.311-6.057-1.477-9.246-2.799-2.251-.933-7.615-3.735-10.821-5.596-7.191-4.176-9.72-1.244-14.737 0 .627-4.664-2.504-7.18-3.677-7.774-1.8-.91-5.73-2.487-5.73-2.798C18.568 5.29 27.587 0 37.381 0 43.81 0 49.923 4.353 57.45 2.798z"/>
            </g>
        </g>
    </g>
</svg>
