<svg xmlns="http://www.w3.org/2000/svg" xmlns:xlink="http://www.w3.org/1999/xlink" width="75" height="75" viewBox="0 0 75 75">
    <defs>
        <path id="a" d="M0 0h74.51v74.584H0z"/>
        <linearGradient id="b" x1="0%" y1="0%" y2="92.499%">
            <stop offset="0%" stop-color="#00B4FF"/>
            <stop offset="100%" stop-color="#92FE9D"/>
        </linearGradient>
    </defs>
    <g fill="none" fill-rule="evenodd">
        <mask id="c" fill="#fff">
            <use xlink:href="#a"/>
        </mask>
        <path fill="url(#b)" d="M46.72 47.272a.714.714 0 0 0-.997-.197l-1.796 1.204a26.333 26.333 0 0 1-3.3-2.047h2.615c.4 0 .728-.323.728-.723 0-.4-.328-.728-.728-.728h-4.308l-.054.011a11.909 11.909 0 0 1-3.602-5.754 11.235 11.235 0 0 1-.258-3.049 3.954 3.954 0 0 1 4.39 0c.63.35 1.216.767 1.753 1.243a.767.767 0 0 0-.077.334v2.89c0 .4.328.723.717.723.4 0 .728-.323.728-.723v-1.85c.422.487.832 1.007 1.2 1.544a.725.725 0 0 0 1.006.175.717.717 0 0 0 .175-1.003v-.01a20.25 20.25 0 0 0-1.592-1.987l1.8-1.353a.723.723 0 0 0-.426-1.297.735.735 0 0 0-.433.148l-1.982 1.484a11.408 11.408 0 0 0-2.19-1.588 5.308 5.308 0 0 0-4.828-.46c.263-1.226.712-2.42 1.385-3.509a.736.736 0 0 0 .054-.728.71.71 0 0 0-.596-.4.699.699 0 0 0-.646.307 12.506 12.506 0 0 0-1.648 9.104.586.586 0 0 0-.312.159c-3.191 3.137-3.328 8.244-.317 11.55l-.011 1.983c0 .197.077.377.208.514a.717.717 0 0 0 1.232-.504l.01-1.45h1.435a.72.72 0 0 0 0-1.44h-1.73c-2.474-2.622-2.48-6.695-.082-9.345a13.403 13.403 0 0 0 3.963 5.628v3.717a.719.719 0 1 0 1.44 0v-2.54a27.828 27.828 0 0 0 3.596 2.25v1.73a.72.72 0 1 0 1.44 0v-1.78l1.845-1.226a.74.74 0 0 0 .203-1.007h-.01zm5.856-11.195l-.18.766c-.06.274-.23.51-.47.657-.23.142-.516.192-.784.126l-2.895-.674c-.028-.087-.06-.17-.094-.257 1.243 3.477 1.424 7.358 1.917 11.097a40.58 40.58 0 0 1 .366 6.044c.011.082.011.17.011.252a3.602 3.602 0 0 1-1.068 2.518 3.549 3.549 0 0 1-2.523 1.03 24.771 24.771 0 0 1-21.066-7.272 16.007 16.007 0 0 1-3.903-16.15c.191-.694.421-1.406.684-2.112.68-2.206.98-4.505.904-6.815.01-.187.027-.35.032-.52l-3.706-3.723a1.047 1.047 0 0 1 0-1.484l.564-.564a1.035 1.035 0 0 1 1.473 0l3.63 3.646c.246-.005.486-.005.722.011a3.618 3.618 0 0 0 2.84-1.008.81.81 0 0 0 .105-.48c-.022-.669-.482-1.621-.591-2.404-.077-.575-.17-1.484.12-1.68a2.351 2.351 0 0 1 2.004-.356 3.42 3.42 0 0 1 1.1 1.072c.307.427.882.542 1.336.28a4.492 4.492 0 0 1 4.15-.45l1.089-1.094a2.16 2.16 0 0 1 3.054 0c.843.843.843 2.217.006 3.06l-1.03 1.03c.231.443.433.903.598 1.373.142.433.541.734 1.002.744.634-.026 1.264.1 1.834.384h4.483a2.16 2.16 0 0 1 2.157 2.163 2.166 2.166 0 0 1-2.157 2.162h-4.15c-.656.367-1.379.58-2.13.64a.546.546 0 0 0-.454.455c-.032.23.077.46.28.57 2.19 1.258 3.711 2.791 4.817 4.5l.443.097 2.158-2.315a1.034 1.034 0 0 1 1.472-.05l.58.537c.427.4.444 1.062.05 1.484l-1.024 1.106 1.462.34c.558.13.909.7.782 1.264zm17.032-9.138L47.595 4.922A16.646 16.646 0 0 0 35.732 0a16.643 16.643 0 0 0-11.858 4.922c0 .005 0 .005-.005.005L4.867 23.972a16.705 16.705 0 0 0-3.608 5.437A16.753 16.753 0 0 0 0 35.814c0 4.483 1.748 8.71 4.912 11.885l15.7 15.684a15.229 15.229 0 0 1-9.541 3.383c-.46 0-.943-.021-1.435-.071l-1.166-.11.663.97c2.567 3.727 6.76 5.95 11.228 5.95a13.42 13.42 0 0 0 7.932-2.572 16.669 16.669 0 0 0 10.445 3.651c4.527.005 8.76-1.746 11.923-4.916.209-.203.405-.41.591-.624L69.236 51.06c.125-.115.246-.235.366-.356 6.542-6.552 6.542-17.211.006-23.765z" mask="url(#c)"/>
    </g>
</svg>
