<svg xmlns="http://www.w3.org/2000/svg" xmlns:xlink="http://www.w3.org/1999/xlink" width="75" height="75" viewBox="0 0 75 75">
    <defs>
        <path id="a" d="M0 0h74.118v74.641H0z"/>
        <linearGradient id="b" x1="0%" y1="0%" y2="92.499%">
            <stop offset="0%" stop-color="#00B4FF"/>
            <stop offset="100%" stop-color="#92FE9D"/>
        </linearGradient>
    </defs>
    <g fill="none" fill-rule="evenodd">
        <mask id="c" fill="#fff">
            <use xlink:href="#a"/>
        </mask>
        <path fill="url(#b)" d="M57.109 47.326c-.598.185-1.207.316-1.728.337-16.392.75-30.066-5.076-41.142-17.153L37.674 7.086l29.837 29.838-10.402 10.402zm-7.642 7.653c-1.38.674-11.718-1.86-14.782-3.207a59.058 59.058 0 0 1-8.718-4.706 57.517 57.517 0 0 1-4.021-2.87 62.66 62.66 0 0 1-3.794-3.207 63.697 63.697 0 0 1-3.532-3.532 50.099 50.099 0 0 1-1.74-1.946 74.118 74.118 0 0 1-1.64-1.989l1.195-1.208c8.109 7.86 16.859 14.816 28.12 17.404l12.217 1.944-3.304 3.317zm-11.76 11.75L7.857 36.89l2.175-2.174c8.599 12.24 20.631 19.903 34.675 25.012l-7 7zm34.64-35.555l-.075.022a16.653 16.653 0 0 0-2.544-3.794 19.141 19.141 0 0 0-.63-.663L47.207 4.86a17.48 17.48 0 0 0-2.5-2.076 14.991 14.991 0 0 0-1.892-1.077 13.696 13.696 0 0 0-1.728-.738A16.947 16.947 0 0 0 35.457 0c-2 0-3.968.346-5.794 1.032-.37.141-.728.283-1.087.445-.01 0-.023 0-.032.011-.696.327-1.37.696-2.022 1.119a17.6 17.6 0 0 0-2.815 2.273l-.011.01-18.87 18.903a16.934 16.934 0 0 0-3.587 5.4A16.664 16.664 0 0 0 0 35.555c0 2.707.641 5.326 1.859 7.664a16.727 16.727 0 0 0 2.674 3.77L20.38 63.196l2.793 2.74c-2.685 1.988-5.967 3.107-9.315 3.107-.468 0-.968-.032-1.468-.087l-.01.012.01.01c2.446 3.554 6.446 5.664 10.684 5.664 2.632 0 5.143-.783 7.284-2.272l-.261-.261a16.56 16.56 0 0 0 8.359 2.238 16.584 16.584 0 0 0 11.89-4.891c.207-.206.403-.413.599-.619l18.282-18.293a15.987 15.987 0 0 0 2.294-2.88c3.163-4.99 3.435-11.273.826-16.49z" mask="url(#c)"/>
    </g>
</svg>
