<svg xmlns="http://www.w3.org/2000/svg" xmlns:xlink="http://www.w3.org/1999/xlink" width="80" height="80" viewBox="0 0 80 80">
    <defs>
        <path id="a" d="M0 0h80v80H0z"/>
        <linearGradient id="b" x1="0%" y1="0%" y2="92.499%">
            <stop offset="0%" stop-color="#00B4FF"/>
            <stop offset="100%" stop-color="#92FE9D"/>
        </linearGradient>
    </defs>
    <g fill="none" fill-rule="evenodd">
        <mask id="c" fill="#fff">
            <use xlink:href="#a"/>
        </mask>
        <path fill="url(#b)" d="M65.622 50.868L29.148 14.456l8.194-8.183 36.474 36.412-8.194 8.183zm-7.024 6.898l-16.805-16.77 3.28-3.276 16.805 16.782-3.28 3.264zm-5.331 5.324L36.473 46.308l3.28-3.264 16.794 16.77-3.28 3.276zm-5.32 5.324L31.142 51.632l3.28-3.276L51.227 65.14l-3.28 3.275zm-5.331 5.313L25.822 56.956l3.269-3.275 16.805 16.77-3.28 3.276zM6.143 37.315l19.262-19.236 16.805 16.77-19.262 19.237L6.143 37.315zm68.53-8.67L51.331 5.348A18.176 18.176 0 0 0 38.397 0c-3.523 0-6.93.995-9.851 2.882a18.48 18.48 0 0 0-3.106 2.5L5.32 25.509a18.25 18.25 0 0 0-3.952 5.938A18.239 18.239 0 0 0 0 38.437c0 4.896 1.9 9.503 5.366 12.975l16.62 16.586.614.602c-2.944 2.303-6.594 3.588-10.326 3.588-.499 0-1.032-.035-1.565-.093l-.012.011.012.012c2.608 3.785 6.873 6.03 11.393 6.03 2.805 0 5.482-.833 7.765-2.419l.301.29C33.378 78.588 37.435 80 41.584 80c4.938 0 9.562-1.898 13.027-5.359.232-.231.44-.451.638-.671l19.413-19.387a17.653 17.653 0 0 0 2.515-3.148c4.555-7.176 3.512-16.76-2.504-22.79z" mask="url(#c)"/>
    </g>
</svg>
