<svg xmlns="http://www.w3.org/2000/svg" xmlns:xlink="http://www.w3.org/1999/xlink" width="75" height="75" viewBox="0 0 75 75">
    <defs>
        <linearGradient id="a" x1="-39.135%" x2="145.185%" y1="0%" y2="210.207%">
            <stop offset="0%" stop-color="#00B4FF"/>
            <stop offset="100%" stop-color="#92FE9D"/>
        </linearGradient>
        <path id="b" d="M.798.407h47.245V35.87H.798z"/>
        <linearGradient id="c" x1="-23.814%" x2="138.858%" y1="-107.101%" y2="108.092%">
            <stop offset="0%" stop-color="#00B4FF"/>
            <stop offset="100%" stop-color="#92FE9D"/>
        </linearGradient>
        <path id="e" d="M0 .846h35.44V43.22H0z"/>
        <linearGradient id="f" x1="0%" x2="211.324%" y1="-37.906%" y2="140.482%">
            <stop offset="0%" stop-color="#00B4FF"/>
            <stop offset="100%" stop-color="#92FE9D"/>
        </linearGradient>
        <path id="h" d="M.47.171h35.444v42.373H.471z"/>
        <linearGradient id="i" x1="-103.703%" y1="-36.619%" y2="137.52%">
            <stop offset="0%" stop-color="#00B4FF"/>
            <stop offset="100%" stop-color="#92FE9D"/>
        </linearGradient>
    </defs>
    <g fill="none" fill-rule="evenodd">
        <path fill="url(#a)" d="M29.491 22.02l6.334-6.333-6.041-6.04L31.39 8.04l6.04 6.04 6.28-6.278 1.706 1.705-6.28 6.28 6.042 6.04-1.606 1.607-6.042-6.041-6.332 6.334-1.707-1.707zm27.923-6.955L47.208 4.857A16.509 16.509 0 0 0 35.463 0a16.45 16.45 0 0 0-8.947 2.613 17.157 17.157 0 0 0-2.813 2.275l-.007.008-8.655 8.67 21.936 21.936 20.437-20.437z"/>
        <g transform="translate(10.87 38.17)">
            <mask id="d" fill="#fff">
                <use xlink:href="#b"/>
            </mask>
            <path fill="url(#c)" d="M36.914 24.095l-13.789-13.79 1.599-1.597 13.789 13.788-1.599 1.599zm-5.242 5.241L17.884 15.548l1.606-1.606L33.278 27.73l-1.606 1.605zM5.67 20.844l3.912 3.912 2.15 2.11C9.01 28.92 5.683 30.07 2.276 30.07c-.467 0-.967-.033-1.467-.087l-.011.01.01.012c2.446 3.554 6.446 5.663 10.685 5.663 2.63 0 5.142-.783 7.283-2.272l-.147-.144a16.557 16.557 0 0 0 8.955 2.617c4.495.007 8.692-1.73 11.836-4.873.207-.208.4-.415.592-.623l8.031-8.031L26.108.407 5.67 20.844z" mask="url(#d)"/>
        </g>
        <g transform="translate(0 14.256)">
            <mask id="g" fill="#fff">
                <use xlink:href="#e"/>
            </mask>
            <path fill="url(#f)" d="M14.365 23.828c-1.206.345-2.352.584-3.612.876L5.972 25.75l-2.59-2.59 11.198-2.007 1.952-10.714 2.614 2.613-.937 4.627c-.24 1.206-.508 2.275-.8 3.428l.077.076c1.206-.344 2.298-.591 3.427-.86l4.566-.938 2.544 2.544-10.669 1.844-2.136 11.222-2.675-2.675 1.023-4.803c.23-1.26.53-2.405.852-3.636l-.053-.053zm21.075-1.046L13.504.846 4.827 9.54a16.765 16.765 0 0 0-3.59 5.403A16.539 16.539 0 0 0 0 21.298a16.6 16.6 0 0 0 4.865 11.8l10.138 10.121L35.44 22.782z" mask="url(#g)"/>
        </g>
        <g transform="translate(38.043 16.43)">
            <mask id="j" fill="#fff">
                <use xlink:href="#h"/>
            </mask>
            <path fill="url(#i)" d="M26.65 28.925l-13.79-13.79 1.599-1.597 13.789 13.788-1.599 1.599zm4.403-18.608L20.908.171.47 20.608l21.936 21.936 8.639-8.639a16.14 16.14 0 0 0 2.282-2.866c4.09-6.442 3.329-15.104-2.275-20.722z" mask="url(#j)"/>
        </g>
    </g>
</svg>
