<svg xmlns="http://www.w3.org/2000/svg" xmlns:xlink="http://www.w3.org/1999/xlink" width="75" height="75" viewBox="0 0 75 75">
    <defs>
        <path id="a" d="M0 1.086h73.954v73.948H0z"/>
        <linearGradient id="b" x1="0%" y1="0%" y2="92.499%">
            <stop offset="0%" stop-color="#00B4FF"/>
            <stop offset="100%" stop-color="#92FE9D"/>
        </linearGradient>
    </defs>
    <g fill="none" fill-rule="evenodd">
        <path fill="#06F9CA" d="M49.935 25.34l-10.011 4.625 5.413 5.396 4.674-9.945z"/>
        <mask id="c" fill="#fff">
            <use xlink:href="#a"/>
        </mask>
        <path fill="url(#b)" d="M55.804 55.024l-22.739 4.43 7.38 7.372 2.142-1.759 1.967 1.965-3.75 3.746-12.13-12.106 1.706-1.704L53 52.548l-6.837-6.828-2.12 1.78-.043.044-4.891-4.886 1.478-1.477 1.51 1.064 2.012-4.256-6.826-6.807-4.294 1.965 1.065 1.51-1.478 1.476-4.88-4.875 1.478-1.477 1.435 1.097 21.348-9.424 1.978 1.976-8.196 18.24 11.719 11.704-1.654 1.65zm13.294-27.219L48.304 7.035 14.848 40.444l-.761-8.436-8.457-.77 30.174-30.14c-.108-.011-.217-.011-.347-.011-3.207 0-6.294.901-8.946 2.606-1 .651-1.946 1.411-2.815 2.28l-18.87 18.88a16.565 16.565 0 0 0-3.587 5.396A16.496 16.496 0 0 0 0 36.6c-.01 4.44 1.728 8.631 4.859 11.78l15.587 15.558 2.41 2.36c-2.655 1.89-5.843 2.949-9.106 2.949-.467 0-.967-.033-1.467-.087l-.011.011.01.01c2.446 3.551 6.446 5.657 10.685 5.657 2.532 0 4.948-.73 7.035-2.11a16.538 16.538 0 0 0 8.444 2.306c4.5.01 8.695-1.726 11.837-4.864.206-.206.402-.413.597-.619l18.207-18.186c.88-.89 1.641-1.845 2.283-2.866 4.087-6.438 3.326-15.08-2.272-20.694z" mask="url(#c)"/>
    </g>
</svg>
