<?xml version="1.0" encoding="UTF-8"?>
<svg width="75px" height="75px" viewBox="0 0 75 75" version="1.1" xmlns="http://www.w3.org/2000/svg" xmlns:xlink="http://www.w3.org/1999/xlink">
    <!-- Generator: Sketch 51.2 (57519) - http://www.bohemiancoding.com/sketch -->
    <title>icon congress</title>
    <desc>Created with Sketch.</desc>
    <defs>
        <polygon id="path-1" points="1 0.93092 74.0020571 0.93092 74.0020571 74 1 74"></polygon>
        <linearGradient x1="0%" y1="0%" x2="100%" y2="92.4993001%" id="linearGradient-3">
            <stop stop-color="#00C9FF" offset="0%"></stop>
            <stop stop-color="#92FE9D" offset="100%"></stop>
        </linearGradient>
    </defs>
    <g id="icon-congress" stroke="none" stroke-width="1" fill="none" fill-rule="evenodd">
        <mask id="mask-2" fill="white">
            <use xlink:href="#path-1"></use>
        </mask>
        <g id="Clip-8"></g>
        <path d="M54.4914286,63.9038629 L11.0745714,20.4975771 L13.6962857,17.8758629 L57.1025714,61.2832057 L54.4914286,63.9038629 Z M41.2454286,63.4292057 C39.1628571,65.5117771 35.78,65.5117771 33.6974286,63.4292057 C36.1182857,65.8500629 36.4142857,69.5701486 34.6277143,72.3303486 C32.6508571,71.7594914 30.7902857,70.8175771 29.1728571,69.5278629 L28.8662857,69.2741486 L28.5385714,69.5183486 C26.3925714,71.0712914 23.8448571,71.89692 21.1914286,71.89692 C17.058,71.89692 13.1677143,69.8344343 10.7785714,66.3892057 L10.7785714,66.3786343 C11.2331429,66.4314914 11.7194286,66.4515771 12.2162857,66.4515771 C15.652,66.4515771 19.0454286,65.2474914 21.7622857,63.06872 L22.2274286,62.69872 L6.64514286,47.1386343 C4.91142857,45.3932914 3.64285714,43.3117771 2.89228571,41.0494914 C5.59857143,39.09272 9.38314286,39.2830057 11.878,41.6192914 C11.9414286,41.6732057 11.9942857,41.7355771 12.0577143,41.7884343 C12.2902857,42.0326343 12.544,42.2324343 12.8188571,42.4237771 L11.952,41.5558629 C11.952,41.5558629 11.9308571,41.5780629 11.8885714,41.60872 C9.97514286,39.5261486 10.028,36.2701486 12.0577143,34.2404343 C14.1297143,32.1684343 17.5231429,32.1684343 19.5951429,34.2404343 C21.6777143,36.3230057 21.6777143,39.7164343 19.6057143,41.7884343 C17.7557143,43.6384343 14.8908571,43.8403486 12.8188571,42.4237771 L22.2485714,51.84292 C20.832,49.77092 21.0328571,46.9166343 22.8828571,45.0666343 C24.9548571,42.9946343 28.3377143,42.9830057 30.4202857,45.0666343 C32.5028571,47.1481486 32.5028571,50.5320629 30.4202857,52.6135771 C28.5808571,54.4540629 25.716,54.6654914 23.644,53.2372914 L33.0737143,62.6670057 C31.6465714,60.5950057 31.858,57.7301486 33.6974286,55.89072 C35.78,53.8081486 39.1628571,53.8081486 41.2454286,55.89072 C43.3174286,57.9637771 43.3174286,61.3572057 41.2454286,63.4292057 Z M47.9582857,19.7470057 L51.8485714,34.28272 L37.3128571,30.3934914 L47.9582857,19.7470057 Z M69.1117143,27.0952057 L47.8525714,5.83500571 C44.7022857,2.67414857 40.5054286,0.93092 36.0337143,0.93092 C31.6254286,0.93092 27.492,2.62129143 24.3522857,5.68806286 L24.3311429,5.71872 C24.2888571,5.75043429 24.2465714,5.79272 24.2148571,5.83500571 L5.86285714,24.2303486 C4.29828571,25.7938629 3.08257143,27.6237771 2.258,29.6534914 C1.42285714,31.6610057 1,33.8070057 1,36.0386343 C1,38.0038629 1.35942857,39.9077771 2.00428571,41.7038629 C2.00428571,41.7260629 2.01485714,41.7461486 2.01485714,41.7683486 L2.02542857,41.7683486 C2.85,44.0295771 4.15028571,46.1237771 5.90514286,47.8786343 L20.6311429,62.6046343 C18.1891429,64.4112914 15.2185714,65.3944343 12.2162857,65.3944343 C11.7511429,65.3944343 11.3071429,65.3743486 10.8842857,65.3214914 L8.64314286,65.1100629 L9.91171429,66.9801486 C12.4911429,70.7224343 16.7091429,72.9540629 21.1914286,72.9540629 C23.94,72.9540629 26.5722857,72.1390057 28.824,70.5955771 C30.3674286,71.7690057 32.1011429,72.6474914 33.9405714,73.2278629 L33.93,73.2384343 C34.0462857,73.2701486 34.152,73.2923486 34.2577143,73.3230057 C35.7694286,73.7564343 37.3445714,74.0006343 38.9302857,74.0006343 C43.4337143,74.0006343 47.6517143,72.2552914 50.8231429,69.0944343 L50.8971429,69.0214914 C51.0768571,68.84072 51.246,68.6610057 51.3834286,68.49292 L68.7417143,51.1452057 C68.858,51.0278629 68.9848571,50.9115771 69.1011429,50.7857771 C75.6342857,44.2515771 75.6342857,33.6177771 69.1117143,27.0952057 Z" id="Fill-7" fill="url(#linearGradient-3)" mask="url(#mask-2)"></path>
    </g>
</svg>