<svg xmlns="http://www.w3.org/2000/svg" xmlns:xlink="http://www.w3.org/1999/xlink" width="84" height="84" viewBox="0 0 84 84">
    <defs>
        <circle id="a" cx="42" cy="42" r="42"/>
        <path id="c" d="M11.831 11.24L9.063 0H0v11.356c0 2.761 2.15 5.177 4.674 5.177 2.493 0 7.157-2.532 7.157-5.294z"/>
        <path id="e" d="M3.06 25.712c5.993-.392 10.15-1.763 12.467-4.113a789.79 789.79 0 0 0 6.601-6.769c.622.4 2.092 1.09 4.41 2.07 2.318.979 4.25 2.115 5.795 3.408-.773 2.036-.773 4.425 0 7.166.772 2.742 2.318 4.649 4.635 5.722l2.64-3.867 2.86-1.855c.636-9.288-1.197-16.338-5.5-21.15C30.515-.891 23.698-.255 20.222.332c-3.496-.587-10.17 1.934-13.984 4.833-3.814 2.9-7.17 9.274-6.002 20.548C1.405 36.985 8.463 55.289 10.37 57.866c4.346.001 7.06-.288 8.192-.408-.345-1.12-.673-4.279-.773-5.24-5.72-2.9-8.681-7.159-10.916-10.967-.595-1.015-1.99-4.116-2.224-4.833-1.115-3.411-1.645-6.98-1.59-10.706z"/>
    </defs>
    <g fill="none" fill-rule="evenodd">
        <mask id="b" fill="#fff">
            <use xlink:href="#a"/>
        </mask>
        <use fill="#C4F2FF" xlink:href="#a"/>
        <g mask="url(#b)">
            <g transform="matrix(-1 0 0 1 68.968 1.768)">
                <path fill="#FAE1D6" fill-rule="nonzero" d="M6.865 110.725c3.751-3.132 9.11-12.33 10.033-16.323 1.19-5.157 3.126-15.167 5.042-21.84 1.206-4.204 2.616-11.334-2.824-12.59-5.298-1.224-5.673 6.848-6.677 11.199l-4.51 19.531c-.465 2.016-6.674 19.044-6.528 21.829.276 5.254 2.947.295 5.464-1.806z"/>
                <path fill="#EF4D6A" d="M12.657 86.697c0-4.963.92-14.032 1.612-20.012.228-1.98 1.842-4.601 2.763-5.521.92-.92 1.59-1.208 2.584-1.559 2.694-.951 5.133-1.662 9.62-1.662 2.933-.517 8.848 1.68 11.37 3.22.43.264.43 1.184 0 2.761l-.976 43.582.976 14.941c-10.84.866-20.488.217-28.944-1.949-1.078-18.159.995-27.36.995-33.8z"/>
                <path fill="#DC7F43" d="M6.94 21.345c-1.076 8.539-1.384 13.689-.923 15.449.265 1.014 5.721 15.31 6.787 21.272 1.183 1.248 5.847 1.379 7.459.692 2.349-1.001 5.803-1.23 10.363-.683 6.142.767 12.207.77 18.195.009-2.535-2.982-2.54-12.841-2.542-16.739l-.006-13.298c0-.849-.308-1.231-.922-1.147l-1.564 8.12-6.593 2.54-24.403-7.379-5.851-8.836z"/>
                <path fill="#FAE1D6" fill-rule="nonzero" d="M36.91 112.335c2.952-3.896 6.105-14.064 6.105-18.162 0-5.293-.365-15.48 0-22.414.23-4.368 0-11.633-5.583-11.633-5.438 0-3.987 7.95-3.987 12.415v20.045c0 2.069-2.22 20.056-1.451 22.737 1.45 5.058 2.938-.375 4.917-2.988z"/>
                <g transform="translate(19.042 47.238)">
                    <mask id="d" fill="#fff">
                        <use xlink:href="#c"/>
                    </mask>
                    <use fill="#FADDCF" xlink:href="#c"/>
                    <path fill="#F3D2C3" fill-rule="nonzero" d="M10.76 13.58c.263.07 2.624-2.044 2.846-2.025l-.685-2.361c-.685-1.35-1.477-1.687-2.16-3.34l-.002-.042V4.133l-7.997.042-2.17.719c1.447 1.617 5.193 7.337 10.167 8.685z" mask="url(#d)"/>
                </g>
                <path fill="#FAE1D6" fill-rule="nonzero" d="M42.704 32.016c0 10.356-5.507 20.536-18.93 20.536S4.844 38.92 4.844 28.564s8.87-14.393 19.894-14.393 17.966 7.488 17.966 17.845z"/>
                <g transform="rotate(6 .593 59.402)">
                    <mask id="f" fill="#fff">
                        <use xlink:href="#e"/>
                    </mask>
                    <use fill="#DC7F43" xlink:href="#e"/>
                    <path fill="#E5884C" d="M21.446-.59c-.528 1.073-.74 2.146-.634 3.219.159 1.61 1.9 3.862 2.217 6.116.316 2.253-.95 6.76-.634 7.082.317.322-4.432 8.37-5.382 8.691-.95.322-6.333 3.219-6.65 3.863-.316.644 3.802 11.588 5.067 12.876 1.264 1.288 6.965 5.794 6.965 6.438 0 .644 1.267 8.048 1.267 8.691 0 .644-.633 2.254-2.216 2.576-1.584.322-10.132-.322-10.766-.966-.633-.644-6.332-9.98-6.965-12.554-.634-2.576-6.333-27.04-5.383-29.615.95-2.576 2.533-7.404 4.75-9.658C5.297 3.916 8.78 1.341 10.363.697c1.055-.43 4.75-.858 11.082-1.287z" mask="url(#f)"/>
                </g>
                <path fill="#FFF" d="M26.732 41.924c0 1.855-2.384 4.723-5.324 4.723s-5.324-2.868-5.324-4.723c2.662 1.545 6.322 1.16 10.648 0z"/>
                <ellipse cx="27.619" cy="31" fill="#444" rx="1.479" ry="2.067"/>
                <ellipse cx="13.422" cy="31" fill="#444" rx="1.479" ry="2.067"/>
                <path fill="#FAE1D6" fill-rule="nonzero" d="M41.386 29.047c2.226-.467 3.684.53 3.684 2.49 0 2.595-2.993 8.95-6.14 4.982-3.146-3.97 2.456-7.472 2.456-7.472z"/>
            </g>
        </g>
    </g>
</svg>
