<?xml version="1.0" encoding="UTF-8"?>
<svg width="169px" height="50px" viewBox="0 0 169 50" version="1.1" xmlns="http://www.w3.org/2000/svg" xmlns:xlink="http://www.w3.org/1999/xlink">
    <!-- Generator: Sketch 51.1 (57501) - http://www.bohemiancoding.com/sketch -->
    <title>Recurso 1150</title>
    <desc>Created with Sketch.</desc>
    <defs>
        <linearGradient x1="91.4762131%" y1="4.94615078%" x2="-38.5502813%" y2="71.8787395%" id="linearGradient-1">
            <stop stop-color="#00A0FF" offset="0%"></stop>
            <stop stop-color="#00A1FF" offset="1%"></stop>
            <stop stop-color="#00BEFF" offset="26%"></stop>
            <stop stop-color="#00D2FF" offset="51%"></stop>
            <stop stop-color="#00DFFF" offset="76%"></stop>
            <stop stop-color="#00E3FF" offset="100%"></stop>
        </linearGradient>
        <linearGradient x1="107.684729%" y1="50%" x2="-130.640394%" y2="50%" id="linearGradient-2">
            <stop stop-color="#FFE000" offset="0%"></stop>
            <stop stop-color="#FFBD00" offset="41%"></stop>
            <stop stop-color="#FFA500" offset="78%"></stop>
            <stop stop-color="#FF9C00" offset="100%"></stop>
        </linearGradient>
        <linearGradient x1="86.2709832%" y1="17.871098%" x2="-50.1798561%" y2="194.639567%" id="linearGradient-3">
            <stop stop-color="#FF3A44" offset="0%"></stop>
            <stop stop-color="#C31162" offset="100%"></stop>
        </linearGradient>
        <linearGradient x1="-18.82494%" y1="-54.0297086%" x2="42.0863309%" y2="24.9280028%" id="linearGradient-4">
            <stop stop-color="#32A071" offset="0%"></stop>
            <stop stop-color="#2DA771" offset="7%"></stop>
            <stop stop-color="#15CF74" offset="48%"></stop>
            <stop stop-color="#06E775" offset="80%"></stop>
            <stop stop-color="#00F076" offset="100%"></stop>
        </linearGradient>
    </defs>
    <g id="HOME" stroke="none" stroke-width="1" fill="none" fill-rule="evenodd">
        <g id="HOME-login" transform="translate(-135.000000, -885.000000)" fill-rule="nonzero">
            <g id="Recurso-1150" transform="translate(135.000000, 885.000000)">
                <rect id="Rectangle-path" fill="#000000" x="0" y="0" width="168.75" height="50" rx="5"></rect>
                <path d="M162.5,1 C165.399495,1 167.75,3.35050506 167.75,6.25 L167.75,43.75 C167.75,46.6494949 165.399495,49 162.5,49 L6.25,49 C3.35050506,49 1,46.6494949 1,43.75 L1,6.25 C1,3.35050506 3.35050506,1 6.25,1 L162.5,1 Z M162.5,0 L6.25,0 C2.79822031,-2.11360547e-16 4.22721094e-16,2.79822031 0,6.25 L0,43.75 C4.22721094e-16,47.2017797 2.79822031,50 6.25,50 L162.5,50 C165.95178,50 168.75,47.2017797 168.75,43.75 L168.75,6.25 C168.75,2.79822031 165.95178,2.11360547e-16 162.5,0 Z" id="Shape" fill="#A6A6A6"></path>
                <path d="M59.275,12.8 C59.3164683,13.7263061 58.9778213,14.629365 58.3375,15.3 C57.619277,16.0415089 56.618978,16.4416286 55.5875,16.4 C54.5507236,16.4231057 53.5506662,16.0158425 52.825,15.275 C52.0763497,14.5484879 51.6641714,13.5429539 51.6875,12.5 C51.6606606,11.4527359 52.0731175,10.4419897 52.825,9.7125 C53.9636384,8.59989352 55.658898,8.2795683 57.125,8.9 C57.5757523,9.08528806 57.9778005,9.37185435 58.3,9.7375 L57.6375,10.4 C57.1341927,9.79368823 56.3744847,9.46015789 55.5875,9.5 C54.7985617,9.49612984 54.0420992,9.81385958 53.492545,10.3799239 C52.9429909,10.9459883 52.6477854,11.7115217 52.675,12.5 C52.6582524,13.6914871 53.3599707,14.7760494 54.4536666,15.2490729 C55.5473625,15.7220964 56.8182407,15.4906821 57.675,14.6625 C58.0604414,14.2450917 58.2862002,13.7050413 58.3125,13.1375 L55.5875,13.1375 L55.5875,12.2375 L59.225,12.2375 C59.2529561,12.4238248 59.2696531,12.6116655 59.275,12.8 Z" id="Shape" stroke="#FFFFFF" stroke-width="0.2" fill="#FFFFFF"></path>
                <polygon id="Shape" stroke="#FFFFFF" stroke-width="0.2" fill="#FFFFFF" points="65 9.675 61.625 9.675 61.625 12.05 64.7 12.05 64.7 12.95 61.625 12.95 61.625 15.325 65 15.325 65 16.25 60.65 16.25 60.65 8.75 65 8.75"></polygon>
                <polygon id="Shape" stroke="#FFFFFF" stroke-width="0.2" fill="#FFFFFF" points="69.1 16.25 68.1375 16.25 68.1375 9.675 66.0375 9.675 66.0375 8.75 71.25 8.75 71.25 9.675 69.1 9.675"></polygon>
                <polygon id="Shape" stroke="#FFFFFF" stroke-width="0.2" fill="#FFFFFF" points="74.925 16.25 74.925 8.75 75.8875 8.75 75.8875 16.25"></polygon>
                <polygon id="Shape" stroke="#FFFFFF" stroke-width="0.2" fill="#FFFFFF" points="80.1625 16.25 79.2 16.25 79.2 9.675 77.1 9.675 77.1 8.75 82.25 8.75 82.25 9.675 80.1625 9.675"></polygon>
                <path d="M92.0125,15.275 C91.2833613,16.0047345 90.2940793,16.4147452 89.2625,16.4147452 C88.2309207,16.4147452 87.2416387,16.0047345 86.5125,15.275 C85.7776108,14.5420824 85.3793454,13.5373674 85.4125,12.5 C85.3793454,11.4626326 85.7776108,10.4579176 86.5125,9.725 C87.2268651,8.97371777 88.2261571,8.56037427 89.2625,8.5875 C90.2968218,8.57113819 91.2919617,8.98276424 92.0125,9.725 C92.7386476,10.4636399 93.1353665,11.4644537 93.1125,12.5 C93.1456546,13.5373674 92.7473892,14.5420824 92.0125,15.275 Z M87.225,14.65 C87.7628752,15.1950723 88.4967236,15.5019031 89.2625,15.5019031 C90.0282764,15.5019031 90.7621248,15.1950723 91.3,14.65 C91.859485,14.0767591 92.1618072,13.3006483 92.1375,12.5 C92.1486095,11.69203 91.8278056,10.9148713 91.25,10.35 C90.7121248,9.80492768 89.9782764,9.49809693 89.2125,9.49809693 C88.4467236,9.49809693 87.7128752,9.80492768 87.175,10.35 C86.6337371,10.9314103 86.3498245,11.7065367 86.3875,12.5 C86.3631928,13.3006483 86.665515,14.0767591 87.225,14.65 Z" id="Shape" stroke="#FFFFFF" stroke-width="0.2" fill="#FFFFFF"></path>
                <polygon id="Shape" stroke="#FFFFFF" stroke-width="0.2" fill="#FFFFFF" points="94.475 16.25 94.475 8.75 95.6375 8.75 99.2875 14.5875 99.2875 14.5875 99.2875 13.1375 99.2875 8.75 100.25 8.75 100.25 16.25 99.25 16.25 95.4375 10.1375 95.4375 10.1375 95.4375 11.575 95.4375 16.25"></polygon>
                <path d="M85.175,27.1875 C82.2340956,27.1944116 79.8556231,29.5840858 79.8625293,32.5249902 C79.8694356,35.4658945 82.2591053,37.8443715 85.2000097,37.8374706 C88.1409141,37.8305698 90.5193954,35.4409044 90.5125,32.5 C90.5330912,31.0804672 89.9765395,29.7133872 88.9703189,28.7118796 C87.9640984,27.710372 86.5944205,27.1602446 85.175,27.1875 Z M85.175,35.725 C83.8540342,35.8173816 82.6108412,35.0928919 82.0400266,33.8980463 C81.4692121,32.7032008 81.6867948,31.2808535 82.5887073,30.3112975 C83.4906199,29.3417415 84.8935473,29.0220405 86.1264848,29.5051038 C87.3594223,29.9881672 88.1717736,31.1758117 88.175,32.5 C88.2156785,33.3283399 87.9200409,34.137991 87.3551754,34.7452213 C86.79031,35.3524517 86.0041151,35.7057705 85.175,35.725 Z M73.525,27.1875 C70.5840956,27.1944116 68.2056231,29.5840858 68.2125293,32.5249902 C68.2194356,35.4658945 70.6091053,37.8443715 73.5500097,37.8374706 C76.4909141,37.8305698 78.8693954,35.4409044 78.8625,32.5 C78.8830912,31.0804672 78.3265395,29.7133872 77.3203189,28.7118796 C76.3140984,27.710372 74.9444205,27.1602446 73.525,27.1875 Z M73.525,35.725 C72.2040342,35.8173816 70.9608412,35.0928919 70.3900266,33.8980463 C69.8192121,32.7032008 70.0367948,31.2808535 70.9387073,30.3112975 C71.8406199,29.3417415 73.2435473,29.0220405 74.4764848,29.5051038 C75.7094223,29.9881672 76.5217736,31.1758117 76.525,32.5 C76.5656785,33.3283399 76.2700409,34.137991 75.7051754,34.7452213 C75.14031,35.3524517 74.3541151,35.7057705 73.525,35.725 Z M59.675,28.825 L59.675,31.075 L65.075,31.075 C64.9903293,32.1347547 64.5498058,33.1347431 63.825,33.9125 C62.7295648,35.0285781 61.2124656,35.6281503 59.65,35.5625 C56.3362915,35.5625 53.65,32.8762085 53.65,29.5625 C53.65,26.2487915 56.3362915,23.5625 59.65,23.5625 C61.1755595,23.5398122 62.6486193,24.1191558 63.75,25.175 L65.3375,23.5875 C63.8324758,22.0989427 61.7915482,21.2789674 59.675,21.3125 C56.648701,21.1947238 53.8004919,22.7420897 52.2523176,25.3450713 C50.7041432,27.9480529 50.7041432,31.1894471 52.2523176,33.7924287 C53.8004919,36.3954103 56.648701,37.9427762 59.675,37.825 C61.8377484,37.9113807 63.9344344,37.0699775 65.4375,35.5125 C66.7501481,34.0705126 67.4495789,32.1739789 67.3875,30.225 C67.3919741,29.7559069 67.354323,29.2873594 67.275,28.825 L59.675,28.825 Z M116.3125,30.575 C115.6451,28.6115126 113.83491,27.2638163 111.7625,27.1875 C110.380454,27.1847979 109.058931,27.7542594 108.111724,28.7606669 C107.164517,29.7670744 106.676119,31.1206539 106.7625,32.5 C106.740551,34.8435243 108.263904,36.9218733 110.505325,37.6064311 C112.746746,38.2909888 115.171353,37.4183956 116.4625,35.4625 L114.65,34.2125 C114.100209,35.1288675 113.106093,35.6853818 112.0375,35.675 C110.928544,35.7207871 109.905516,35.080153 109.4625,34.0625 L116.575,31.125 L116.3125,30.575 Z M109.0625,32.35 C109.011324,31.5668793 109.278351,30.796246 109.803089,30.2126814 C110.327826,29.6291168 111.065862,29.2820116 111.85,29.25 C112.670588,29.1974781 113.443156,29.6403518 113.8125,30.375 L109.0625,32.35 Z M103.2875,37.5 L105.625,37.5 L105.625,21.875 L103.2875,21.875 L103.2875,37.5 Z M99.4625,28.375 L99.375,28.375 C98.6569363,27.5934077 97.6360227,27.160431 96.575,27.1875 C93.7376836,27.3250896 91.5079214,29.6655995 91.5079214,32.50625 C91.5079214,35.3469005 93.7376836,37.6874104 96.575,37.825 C97.647997,37.8465234 98.6746463,37.3881978 99.375,36.575 L99.4625,36.575 L99.4625,37.3375 C99.4625,39.375 98.375,40.4625 96.625,40.4625 C95.4293933,40.4362345 94.3679365,39.6907462 93.9375,38.575 L91.9125,39.4125 C92.6789366,41.3374869 94.5532314,42.5903312 96.625,42.5625 C99.3625,42.5625 101.625,40.95 101.625,37.025 L101.625,27.5 L99.4625,27.5 L99.4625,28.375 Z M96.775,35.725 C95.0751083,35.6190153 93.7506824,34.2094425 93.7506824,32.50625 C93.7506824,30.8030575 95.0751083,29.3934847 96.775,29.2875 C97.5837755,29.3224023 98.3437633,29.6840262 98.8809993,30.289595 C99.4182354,30.8951637 99.6867214,31.6928281 99.625,32.5 C99.6939185,33.3100618 99.4283219,34.1130389 98.8899629,34.7222346 C98.3516039,35.3314303 97.587388,35.6937673 96.775,35.725 Z M127.2625,21.875 L121.6625,21.875 L121.6625,37.5 L124,37.5 L124,31.575 L127.2625,31.575 C129.078355,31.7054548 130.814968,30.8106362 131.762663,29.2562162 C132.710358,27.7017962 132.710358,25.7482038 131.762663,24.1937838 C130.814968,22.6393638 129.078355,21.7445452 127.2625,21.875 Z M127.2625,29.375 L124,29.375 L124,24.05 L127.3125,24.05 C128.789862,24.05 129.9875,25.2476383 129.9875,26.725 C129.9875,28.2023617 128.789862,29.4 127.3125,29.4 L127.2625,29.375 Z M141.6875,27.1375 C139.947611,27.0302184 138.310878,27.9690053 137.525,29.525 L139.5875,30.3875 C140.013254,29.6199037 140.850502,29.1743507 141.725,29.25 C142.32441,29.1799933 142.926817,29.3537126 143.39691,29.7321377 C143.867004,30.1105629 144.165373,30.6619686 144.225,31.2625 L144.225,31.4125 C143.473329,31.0173959 142.636685,30.8114528 141.7875,30.8125 C139.5625,30.8125 137.2875,32.0625 137.2875,34.3375 C137.331961,35.3144766 137.770636,36.2316811 138.50328,36.8795177 C139.235925,37.5273544 140.199928,37.8504601 141.175,37.775 C142.369265,37.8410599 143.506388,37.2581646 144.15,36.25 L144.225,36.25 L144.225,37.5 L146.475,37.5 L146.475,31.4875 C146.475,28.75 144.4,27.1625 141.7375,27.1625 L141.6875,27.1375 Z M141.4,35.7 C140.6375,35.7 139.575,35.3125 139.575,34.375 C139.575,33.125 140.9,32.7 142.075,32.7 C142.817552,32.6816774 143.551414,32.8629842 144.2,33.225 C144.037697,34.6288804 142.86295,35.6968314 141.45,35.725 L141.4,35.7 Z M154.675,27.5 L152,34.275 L151.925,34.275 L149.15,27.5 L146.65,27.5 L150.8125,36.975 L148.4375,42.2375 L150.9375,42.2375 L157.275,27.5 L154.675,27.5 Z M133.675,37.5 L136,37.5 L136,21.875 L133.675,21.875 L133.675,37.5 Z" id="Shape" fill="#FFFFFF"></path>
                <path d="M13.05,9.425 C12.6515458,9.91756942 12.4549666,10.5430487 12.5,11.175 L12.5,38.825 C12.4574675,39.4629741 12.6686169,40.0919298 13.0875,40.575 L13.175,40.675 L28.625,25.1875 L28.625,24.8125 L13.1375,9.3375 L13.05,9.425 Z" id="Shape" fill="url(#linearGradient-1)"></path>
                <path d="M33.75,30.35 L28.625,25.1875 L28.625,24.8125 L33.75,19.65 L33.8625,19.725 L40,23.2 C41.75,24.1875 41.75,25.8125 40,26.8125 L33.8875,30.2875 L33.75,30.35 Z" id="Shape" fill="url(#linearGradient-2)"></path>
                <path d="M33.9,30.2875 L28.625,25 L13.05,40.575 C13.7787907,41.2237135 14.86655,41.2604977 15.6375,40.6625 L33.9,30.2875" id="Shape" fill="url(#linearGradient-3)"></path>
                <path d="M33.9,19.725 L15.6375,9.35 C14.8712057,8.74340188 13.7798722,8.77503474 13.05,9.425 L28.625,25 L33.9,19.725 Z" id="Shape" fill="url(#linearGradient-4)"></path>
                <path d="M33.75,30.1625 L15.6375,40.475 C14.8976928,41.0333491 13.8773072,41.0333491 13.1375,40.475 L13.05,40.5625 L13.1375,40.6625 C13.8773072,41.2208491 14.8976928,41.2208491 15.6375,40.6625 L33.9,30.2875 L33.75,30.1625 Z" id="Shape" fill="#000000" opacity="0.2"></path>
                <path d="M13.05,40.4 C12.6484926,39.9041999 12.4517274,39.2736569 12.5,38.6375 L12.5,38.825 C12.4574675,39.4629741 12.6686169,40.0919298 13.0875,40.575 L13.175,40.4875 L13.05,40.4 Z" id="Shape" fill="#000000" opacity="0.12"></path>
                <path d="M40,26.625 L33.75,30.1625 L33.8625,30.2875 L40,26.8 C40.7379943,26.4879478 41.2463254,25.7973848 41.325,25 C41.1665102,25.7213753 40.6747021,26.3245362 40,26.625 Z" id="Shape" fill="#000000" opacity="0.12"></path>
                <path d="M15.6375,9.525 L40,23.375 C40.6747021,23.6754638 41.1665102,24.2786247 41.325,25 C41.2463254,24.2026152 40.7379943,23.5120522 40,23.2 L15.6375,9.35 C13.9,8.35 12.5,9.175 12.5,11.175 L12.5,11.3625 C12.5,9.3625 13.9,8.5375 15.6375,9.525 Z" id="Shape" fill="#FFFFFF" opacity="0.25"></path>
            </g>
        </g>
    </g>
</svg>