<svg xmlns="http://www.w3.org/2000/svg" xmlns:xlink="http://www.w3.org/1999/xlink" width="84" height="85" viewBox="0 0 84 85">
    <defs>
        <ellipse id="a" cx="42" cy="42.5" rx="42" ry="42.5"/>
        <path id="c" d="M12.63 11.06L9.677 0H0v11.175c0 1.812.936 5.666 2.807 11.562 6.55-5.973 9.824-9.865 9.824-11.676z"/>
    </defs>
    <g fill="none" fill-rule="evenodd">
        <mask id="b" fill="#fff">
            <use xlink:href="#a"/>
        </mask>
        <use fill="#C4F2FF" xlink:href="#a"/>
        <g mask="url(#b)">
            <g transform="matrix(-1 0 0 1 83.106 9.842)">
                <path fill="#FAE1D6" fill-rule="nonzero" d="M7.792 110.89c-.183.56.24-.865.213-.793-.887 2.404-.964 4.98 1.231 5.833 2.195.853 6.365-4.099 6.718-5.18.606-1.853 6.791-7.962 8.9-15.034 2.626-8.803 3.687-18.546 5.722-24.889 1.321-4.118-2.65-5.6-3.988-6.034-1.089-.353-5.926 1.181-7.069 5.447-.772 2.88-1.253 13.945-3.276 23.303-1.553 7.18-7.89 15.632-8.45 17.347z"/>
                <path fill="#0EDBB3" d="M16.364 77.846l3.857-12.518c1.09-3.54 3.746-5.834 7.234-4.957 3.489.876 5.433 4.457 4.342 7.998l-2.8 12.652-12.633-3.175z"/>
                <path fill="#06F9CA" d="M24.369 58.828c.321-.64 19.608-6.39 24.43 2.555 3.927 12.046 4.355 32.597 1.286 61.651-11.573 2.13-21.538 2.13-29.895 0 .321 0-4.18-32.078 4.179-64.206z"/>
                <rect width="1.684" height="4.211" x="38.632" y="70.737" fill="#FFF" rx=".842"/>
                <rect width="1.684" height="4.211" x="36.106" y="70.737" fill="#FFF" rx=".842"/>
                <path fill="#44C6A8" d="M32.737 74.105h8.42V80l-4.21 3.368L32.738 80z"/>
                <path fill="#FAE1D6" fill-rule="nonzero" d="M42.047 114.234c-.031.588.007-.897 0-.821-.234 2.552.36 5.06 2.7 5.316 2.34.255 5.087-5.607 5.148-6.743.105-1.946 4.499-9.449 4.706-16.825.258-9.183-1.24-18.868-.915-25.522.21-4.32-4.01-4.723-5.414-4.796-1.143-.06-5.418 2.674-5.418 7.09 0 2.982 2.399 13.795 2.866 23.358.36 7.336-3.575 17.14-3.673 18.943z"/>
                <path fill="#0EDBB3" d="M41.775 80.097l.485-13.09c.137-3.702 2.109-6.604 5.705-6.66 3.597-.056 6.401 2.9 6.264 6.601l.57 12.946-13.024.203z"/>
                <g transform="translate(28.527 46.316)">
                    <mask id="d" fill="#fff">
                        <use xlink:href="#c"/>
                    </mask>
                    <use fill="#FADDCF" xlink:href="#c"/>
                    <path fill="#F3D2C3" fill-rule="nonzero" d="M11.368 13.472c.274.07 2.717-2.003 2.947-1.985l-.709-2.315c-.708-1.323-1.528-1.654-2.237-3.274V4.21l-8.28.04-2.247.705C2.34 6.542 6.22 12.15 11.368 13.472z" mask="url(#d)"/>
                </g>
                <path fill="#3B3133" d="M46.466 20.45c2.82 1.254 2.317 5.58 3.682 8.134 1.424 2.663 2.472 4.305 1.819 7.426l-5.5 6.095c2.774 0 10.18-.735 12.735-11.918.742-3.245 1.377-14.768-4.172-19.65-5.326-4.684-2.66-3.776-16.688-5.475-1.695-.206-3.002 3.138-3.92 10.032l12.044 5.356z"/>
                <path fill="#FAE1D6" fill-rule="nonzero" d="M52.105 31.092c0 10.225-5.39 20.276-18.526 20.276S15.054 37.91 15.054 27.684c0-10.225 8.68-14.21 19.468-14.21 10.79 0 17.583 7.393 17.583 17.618z"/>
                <path stroke="#E5B6A1" stroke-linecap="round" stroke-width=".697" d="M36.106 42.105c0 1.684-2.262 3.369-5.053 3.369-2.79 0-5.052-1.685-5.052-3.369"/>
                <ellipse cx="37.79" cy="30.737" fill="#444" rx="1.684" ry="2.105"/>
                <ellipse cx="23.475" cy="30.737" fill="#444" rx="1.684" ry="2.105"/>
                <path fill="#FAE1D6" fill-rule="nonzero" d="M52.82 28.74c2.111-.444 3.495.504 3.495 2.368 0 2.466-2.84 8.51-5.826 4.736-2.986-3.774 2.33-7.104 2.33-7.104z"/>
                <ellipse cx="52.947" cy="35.368" fill="#FA5E5B" rx="1" ry="1"/>
                <path fill="#3B3133" d="M50.88 19.887c2.24 5.09 2.659 8.004 1.26 8.745-3.15-4.535-14.799-2.915-14.799-2.915-1.05-3.887 0-8.53 3.149-13.928l10.39 8.098z"/>
                <path fill="#32292B" fill-rule="nonzero" d="M15.058 26.105s20.183-.631 20.183-.947c-.644-4.847 7.965-12.963 9.17-13.58 1.85-.946 8.416-1.577 8.521-1.894.316-.947-4.456-6.316-14.518-6.316-6.604 0-23.671 8.21-23.356 22.737z"/>
                <path fill="#3B3133" d="M55.26 7.101c3.635-4.245 6.522-6.58 8.66-7.004 3.208-.637 7.893 1.91 10.264 6.05 2.372 4.138.962 14.185 2.245 21.967 1.284 7.78 6.095 6.367 8.982 5.094 2.886-1.274-11.548 11.142-18.604 7.322-7.057-3.82-2.245-24.196-8.02-26.425-3.848-1.485-5.024-3.82-3.527-7.004z"/>
                <rect width="8.421" height="4.211" x="52.105" y="9.263" fill="#06F9CA" rx="2.105" transform="rotate(55 56.315 11.368)"/>
            </g>
        </g>
    </g>
</svg>
