<svg xmlns="http://www.w3.org/2000/svg" xmlns:xlink="http://www.w3.org/1999/xlink" width="84" height="85" viewBox="0 0 84 85">
    <defs>
        <ellipse id="a" cx="42" cy="42.5" rx="42" ry="42.5"/>
        <path id="c" d="M12.283 11.165L9.409 0H0v11.281c0 2.744 2.232 5.144 4.852 5.144 2.588 0 7.43-2.516 7.43-5.26z"/>
    </defs>
    <g fill="none" fill-rule="evenodd">
        <mask id="b" fill="#fff">
            <use xlink:href="#a"/>
        </mask>
        <use fill="#C4F2FF" xlink:href="#a"/>
        <g mask="url(#b)">
            <g transform="matrix(-1 0 0 1 78.638 2.684)">
                <path fill="#FAE1D6" fill-rule="nonzero" d="M14.874 111.375c-.065.59.005 1.441-.055 1.893l-.07.51c-.385 2.555 1.32 4.94 3.807 5.327 2.488.388 4.817-1.367 5.202-3.921.072-.48-.673-1.262-.547-2.4.482-4.383 2.45-30.482 3.706-42.517.453-4.333-4.036-4.976-5.532-5.127-1.219-.124-5.932 2.386-6.164 6.828-.278 5.3.111 35.244-.347 39.407z"/>
                <path fill="#872E39" d="M13.917 79.462l2.204-13.088c.623-3.702 3.001-6.319 6.654-5.825 3.653.494 6.11 3.895 5.486 7.596l-1.115 13.106-13.229-1.789z"/>
                <path stroke="#35ACCD" stroke-width="1.438" d="M43.85 57.25c-2.812 0-5.093 1.515-5.093 3.383m5.083-3.383c2.813 0 5.093 1.515 5.093 3.383"/>
                <path fill="#227B93" d="M39.167 57.835c1.145-.994 2.848-1.565 4.673-1.567h.011c1.825.002 3.527.573 4.673 1.567l-1.275 1.487c-.785-.681-2.058-1.088-3.404-1.09-1.346.002-2.618.409-3.404 1.09l-1.274-1.487"/>
                <path fill="#369DBA" d="M28.355 99.678c-.002 3.902 3.17 7.096 7.046 7.098l17.391.008c3.877.002 7.051-3.189 7.053-7.09l.015-32.895c.002-3.902-3.168-7.096-7.045-7.097l-17.392-.009c-3.877-.001-7.05 3.19-7.052 7.091l-.016 32.894"/>
                <path fill="#227B93" d="M26.57 100.9c-.002 3.797 3.084 6.906 6.857 6.907l17.775.009c3.773.002 6.862-3.104 6.864-6.902l.015-32.475c.001-3.797-3.084-6.906-6.858-6.908l-17.774-.008c-3.774-.002-6.862 3.104-6.864 6.901L26.57 100.9"/>
                <path fill="#A73F4C" d="M20.314 62.412c1.074-1.94 2.58-2.91 4.514-2.91 1.637 0 4.55-.97 10.64-.97 3.655-.647 6.986.323 9.996 2.91v45.596l.967 14.876c-10.748.862-20.313.215-28.697-1.94-1.934-11.642-1.075-30.83 2.58-57.562z"/>
                <path fill="#227B93" d="M39.338 86.019a37.825 37.825 0 0 0 5.159 6.467l.322-4.204-2.902-6.467c-.611-.762-1.148-1.947-1.612-3.557-.696-2.415-2.02-7.235-.967-10.995 1.122-4.013 4.265-6.52 6.77-7.438l-4.616-2.264c-2.56 1.937-6.024 7.115-5.701 13.582.163 3.284 1.29 11.319 3.547 14.876z"/>
                <path fill="#FFF" d="M18.559 82.76l13.582-1.643a.642.642 0 0 1 .716.578l2.236 24.214a.642.642 0 0 1-.559.696c-7.362.935-11.671 1.402-12.927 1.402-1.265 0-2.117-.623-2.555-1.868a.642.642 0 0 1-.033-.144c-1.503-13.751-2.255-20.842-2.255-21.272 0-.411.488-1.018 1.465-1.82a.642.642 0 0 1 .33-.142z"/>
                <path fill="#5C9969" d="M18.674 82.467l14.782-1.554a.642.642 0 0 1 .704.564l2.85 24.23a.642.642 0 0 1-.553.712c-9.698 1.274-14.863 1.91-15.495 1.91-.636 0-.959-.229-.967-.687 0-.013 0-.025-.002-.038l-1.892-24.449a.642.642 0 0 1 .573-.688z"/>
                <path fill="#FAE1D6" fill-rule="nonzero" d="M26.44 96.367c-.017.294-6.06 4.173-1.29 7.76 1.29.971 6.127.971 12.253.971 2.453 0 10.64-1.277 12.575-3.88 2.886-3.881 2.766-9.548 2.886-13.582.28-9.414-.357-10.575 0-17.482.225-4.35-4.291-4.757-5.794-4.83-1.223-.06-5.798 2.693-5.798 7.141 0 3.109 1.75 9.829 2.257 19.698.36 6.978-16.99 2.472-17.089 4.204z"/>
                <path fill="#93333F" d="M40.118 80.373l.36-13.268c.102-3.752 2.093-6.675 5.78-6.694 3.686-.02 6.591 3.007 6.49 6.76l.72 13.132-13.35.07z"/>
                <g transform="translate(25 46.574)">
                    <mask id="d" fill="#fff">
                        <use xlink:href="#c"/>
                    </mask>
                    <use fill="#FADDCF" xlink:href="#c"/>
                    <path fill="#F3D2C3" fill-rule="nonzero" d="M10.812 13.687c.263.073 2.614-2.072 2.835-2.053l-.682-2.395c-.682-1.369-1.47-1.711-2.152-3.387l-.001-.043V4.106l-7.967.042-2.163.73c1.442 1.64 5.174 7.442 10.13 8.81z" mask="url(#d)"/>
                </g>
                <path fill="#FAE1D6" fill-rule="nonzero" d="M48.883 31.543c0 10.34-5.459 20.506-18.765 20.506-13.306 0-18.765-13.612-18.765-23.953 0-10.34 8.791-14.371 19.72-14.371 10.93 0 17.81 7.477 17.81 17.818z"/>
                <path fill="#FFF" d="M31.599 41.392c0 1.78-2.31 4.528-5.159 4.528-2.85 0-5.159-2.749-5.159-4.528 2.58 1.482 6.126 1.112 10.318 0z"/>
                <ellipse cx="33.856" cy="30.398" fill="#444" rx="1.612" ry="1.94"/>
                <ellipse cx="19.669" cy="30.398" fill="#444" rx="1.612" ry="1.94"/>
                <path fill="#EAA841" d="M42.663 20.623c2.833 1.258-.76 6.516 0 11.068.761 4.553 6.183 1.42 5.527 4.553L42.663 47.6c2.788 0 11.701-7.586 14.268-18.813.746-3.258 2.41-13.543-3.166-18.443-5.351-4.703-3.031-7.712-17.124-9.417-2.556-.31-4.906 4.01-7.944 4.246l1.864 10.071 12.102 5.378z"/>
                <path fill="#FAE1D6" fill-rule="nonzero" d="M47.39 28.895c2.139-.47 3.54.533 3.54 2.502 0 2.606-2.877 8.99-5.901 5.003-3.025-3.987 2.36-7.505 2.36-7.505z"/>
                <path fill="#E39C2D" fill-rule="nonzero" d="M17.734 3.557l1.29 1.294c-5.16 4.85-7.094 6.467-7.094 9.054 0 2.587.712 6.077-2.58 9.055.33-.331 8.244.688 11.609-1.294 1.91-1.125 6.831 1.294 8.705 1.294 6.127 0 8.826-3.418 12.759-2.43-.659-4.963 2.628-7.64 3.858-8.272 1.89-.969 6.277-2.872 6.277-3.203 0-.709.644-1.106.644-3.234-.967 1.293-1.934.97-2.257.647-.322-.324 2.64-1.94 1.35-3.234-1.672 2.075-7.011-1.016-7.476-1.294C41.729.091 35.958-.189 31.463.647c-6.958 1.293-8.248 2.91-13.729 2.91z"/>
            </g>
        </g>
    </g>
</svg>
